<svg xmlns="http://www.w3.org/2000/svg" viewBox="0 0 1600 1200">
  <defs>
    <linearGradient id="headerGrad" x1="0%" y1="0%" x2="100%" y2="0%">
      <stop offset="0%" style="stop-color:#1a1a2e"/>
      <stop offset="100%" style="stop-color:#16213e"/>
    </linearGradient>
    <linearGradient id="networkGrad" x1="0%" y1="0%" x2="100%" y2="100%">
      <stop offset="0%" style="stop-color:#6c5ce7"/>
      <stop offset="100%" style="stop-color:#a29bfe"/>
    </linearGradient>
    <filter id="shadow" x="-20%" y="-20%" width="140%" height="140%">
      <feDropShadow dx="2" dy="2" stdDeviation="3" flood-opacity="0.3"/>
    </filter>
    <filter id="glow">
      <feGaussianBlur stdDeviation="2" result="coloredBlur"/>
      <feMerge>
        <feMergeNode in="coloredBlur"/>
        <feMergeNode in="SourceGraphic"/>
      </feMerge>
    </filter>
  </defs>

  <!-- Background -->
  <rect width="1600" height="1200" fill="#0a0a0f"/>

  <!-- Header -->
  <rect x="0" y="0" width="1600" height="60" fill="url(#headerGrad)"/>
  <text x="800" y="38" text-anchor="middle" fill="#fff" font-family="Arial, sans-serif" font-size="24" font-weight="bold">Docker Network Architecture - platform-net</text>
  <text x="1580" y="38" text-anchor="end" fill="#888" font-family="Arial, sans-serif" font-size="12">Bridge Network Topology</text>

  <!-- Network Backbone -->
  <g transform="translate(50, 80)">
    <!-- Main Network Bar -->
    <rect x="0" y="0" width="1500" height="50" rx="25" fill="url(#networkGrad)" filter="url(#glow)"/>
    <text x="750" y="32" text-anchor="middle" fill="#fff" font-family="Arial, sans-serif" font-size="16" font-weight="bold">platform-net (Docker Bridge Network - 172.20.0.0/16)</text>
  </g>

  <!-- Host Machine Box -->
  <g transform="translate(50, 150)">
    <rect x="0" y="0" width="1500" height="1000" rx="20" fill="none" stroke="#6c5ce7" stroke-width="3" stroke-dasharray="10,5"/>
    <rect x="0" y="0" width="200" height="30" rx="5" fill="#6c5ce7"/>
    <text x="100" y="20" text-anchor="middle" fill="#fff" font-family="Arial, sans-serif" font-size="12" font-weight="bold">Docker Host Machine</text>
  </g>

  <!-- Row 1: Data Layer -->
  <g transform="translate(70, 200)">
    <text x="0" y="0" fill="#00b894" font-family="Arial, sans-serif" font-size="14" font-weight="bold">Data Layer</text>

    <!-- PostgreSQL -->
    <g filter="url(#shadow)" transform="translate(0, 20)">
      <rect x="0" y="0" width="170" height="120" rx="10" fill="#336791"/>
      <text x="85" y="25" text-anchor="middle" fill="#fff" font-family="Arial, sans-serif" font-size="11" font-weight="bold">PostgreSQL</text>
      <text x="85" y="42" text-anchor="middle" fill="#a8d4ff" font-family="monospace" font-size="8">platform-postgres</text>
      <rect x="10" y="52" width="150" height="58" rx="5" fill="rgba(0,0,0,0.3)"/>
      <text x="20" y="70" fill="#ffd93d" font-family="monospace" font-size="8">IP: 172.20.0.2</text>
      <text x="20" y="85" fill="#e0e0e0" font-family="monospace" font-size="8">Internal: 5432</text>
      <text x="20" y="100" fill="#81ecec" font-family="monospace" font-size="8">Host: 5432</text>
    </g>

    <!-- Redis -->
    <g filter="url(#shadow)" transform="translate(185, 20)">
      <rect x="0" y="0" width="170" height="120" rx="10" fill="#d63031"/>
      <text x="85" y="25" text-anchor="middle" fill="#fff" font-family="Arial, sans-serif" font-size="11" font-weight="bold">Redis</text>
      <text x="85" y="42" text-anchor="middle" fill="#ffcccc" font-family="monospace" font-size="8">platform-redis</text>
      <rect x="10" y="52" width="150" height="58" rx="5" fill="rgba(0,0,0,0.3)"/>
      <text x="20" y="70" fill="#ffd93d" font-family="monospace" font-size="8">IP: 172.20.0.3</text>
      <text x="20" y="85" fill="#e0e0e0" font-family="monospace" font-size="8">Internal: 6379</text>
      <text x="20" y="100" fill="#81ecec" font-family="monospace" font-size="8">Host: 6379</text>
    </g>

    <!-- ChromaDB -->
    <g filter="url(#shadow)" transform="translate(370, 20)">
      <rect x="0" y="0" width="170" height="120" rx="10" fill="#9b59b6"/>
      <text x="85" y="25" text-anchor="middle" fill="#fff" font-family="Arial, sans-serif" font-size="11" font-weight="bold">ChromaDB</text>
      <text x="85" y="42" text-anchor="middle" fill="#e8daef" font-family="monospace" font-size="8">platform-chromadb</text>
      <rect x="10" y="52" width="150" height="58" rx="5" fill="rgba(0,0,0,0.3)"/>
      <text x="20" y="70" fill="#ffd93d" font-family="monospace" font-size="8">IP: 172.20.0.4</text>
      <text x="20" y="85" fill="#e0e0e0" font-family="monospace" font-size="8">Internal: 8000</text>
      <text x="20" y="100" fill="#81ecec" font-family="monospace" font-size="8">Host: 8000</text>
    </g>

    <!-- MinIO -->
    <g filter="url(#shadow)" transform="translate(555, 20)">
      <rect x="0" y="0" width="170" height="120" rx="10" fill="#c0392b"/>
      <text x="85" y="25" text-anchor="middle" fill="#fff" font-family="Arial, sans-serif" font-size="11" font-weight="bold">MinIO</text>
      <text x="85" y="42" text-anchor="middle" fill="#ffcccc" font-family="monospace" font-size="8">platform-minio</text>
      <rect x="10" y="52" width="150" height="58" rx="5" fill="rgba(0,0,0,0.3)"/>
      <text x="20" y="70" fill="#ffd93d" font-family="monospace" font-size="8">IP: 172.20.0.5</text>
      <text x="20" y="85" fill="#e0e0e0" font-family="monospace" font-size="8">Internal: 9000, 9001</text>
      <text x="20" y="100" fill="#81ecec" font-family="monospace" font-size="8">Host: 9000, 9001</text>
    </g>

    <!-- SonarQube DB -->
    <g filter="url(#shadow)" transform="translate(740, 20)">
      <rect x="0" y="0" width="170" height="120" rx="10" fill="#336791" opacity="0.7"/>
      <text x="85" y="25" text-anchor="middle" fill="#fff" font-family="Arial, sans-serif" font-size="11" font-weight="bold">SonarQube DB</text>
      <text x="85" y="42" text-anchor="middle" fill="#a8d4ff" font-family="monospace" font-size="8">sonarqube-db</text>
      <rect x="10" y="52" width="150" height="58" rx="5" fill="rgba(0,0,0,0.3)"/>
      <text x="20" y="70" fill="#ffd93d" font-family="monospace" font-size="8">IP: 172.20.0.6</text>
      <text x="20" y="85" fill="#e0e0e0" font-family="monospace" font-size="8">Internal: 5432</text>
      <text x="20" y="100" fill="#888" font-family="monospace" font-size="8">No host port</text>
    </g>

    <!-- Redmine DB -->
    <g filter="url(#shadow)" transform="translate(925, 20)">
      <rect x="0" y="0" width="170" height="120" rx="10" fill="#336791" opacity="0.7"/>
      <text x="85" y="25" text-anchor="middle" fill="#fff" font-family="Arial, sans-serif" font-size="11" font-weight="bold">Redmine DB</text>
      <text x="85" y="42" text-anchor="middle" fill="#a8d4ff" font-family="monospace" font-size="8">redmine-db</text>
      <rect x="10" y="52" width="150" height="58" rx="5" fill="rgba(0,0,0,0.3)"/>
      <text x="20" y="70" fill="#ffd93d" font-family="monospace" font-size="8">IP: 172.20.0.7</text>
      <text x="20" y="85" fill="#e0e0e0" font-family="monospace" font-size="8">Internal: 5432</text>
      <text x="20" y="100" fill="#888" font-family="monospace" font-size="8">No host port</text>
    </g>
  </g>

  <!-- Row 2: AI/LLM Layer -->
  <g transform="translate(70, 370)">
    <text x="0" y="0" fill="#a29bfe" font-family="Arial, sans-serif" font-size="14" font-weight="bold">AI/LLM Layer</text>

    <!-- Ollama -->
    <g filter="url(#shadow)" transform="translate(0, 20)">
      <rect x="0" y="0" width="220" height="120" rx="10" fill="#6c5ce7"/>
      <text x="110" y="25" text-anchor="middle" fill="#fff" font-family="Arial, sans-serif" font-size="11" font-weight="bold">Ollama LLM</text>
      <text x="110" y="42" text-anchor="middle" fill="#e0e0ff" font-family="monospace" font-size="8">platform-ollama (GPU)</text>
      <rect x="10" y="52" width="200" height="58" rx="5" fill="rgba(0,0,0,0.3)"/>
      <text x="20" y="70" fill="#ffd93d" font-family="monospace" font-size="8">IP: 172.20.0.8</text>
      <text x="20" y="85" fill="#e0e0e0" font-family="monospace" font-size="8">Internal: 11434</text>
      <text x="20" y="100" fill="#81ecec" font-family="monospace" font-size="8">Host: 11434</text>
    </g>

    <!-- Open WebUI -->
    <g filter="url(#shadow)" transform="translate(235, 20)">
      <rect x="0" y="0" width="220" height="120" rx="10" fill="#0984e3"/>
      <text x="110" y="25" text-anchor="middle" fill="#fff" font-family="Arial, sans-serif" font-size="11" font-weight="bold">Open WebUI</text>
      <text x="110" y="42" text-anchor="middle" fill="#dfe6e9" font-family="monospace" font-size="8">platform-open-webui</text>
      <rect x="10" y="52" width="200" height="58" rx="5" fill="rgba(0,0,0,0.3)"/>
      <text x="20" y="70" fill="#ffd93d" font-family="monospace" font-size="8">IP: 172.20.0.9</text>
      <text x="20" y="85" fill="#e0e0e0" font-family="monospace" font-size="8">Internal: 8080</text>
      <text x="20" y="100" fill="#81ecec" font-family="monospace" font-size="8">Host: 3000</text>
    </g>

    <!-- Connection: Open WebUI -> Ollama -->
    <line x1="235" y1="80" x2="220" y2="80" stroke="#ffd93d" stroke-width="2" stroke-dasharray="5,3"/>
    <text x="227" y="95" text-anchor="middle" fill="#ffd93d" font-family="monospace" font-size="7">→</text>
  </g>

  <!-- Row 3: DevOps Services Layer -->
  <g transform="translate(70, 540)">
    <text x="0" y="0" fill="#fc6d26" font-family="Arial, sans-serif" font-size="14" font-weight="bold">DevOps Services Layer</text>

    <!-- GitLab -->
    <g filter="url(#shadow)" transform="translate(0, 20)">
      <rect x="0" y="0" width="200" height="140" rx="10" fill="#fc6d26"/>
      <text x="100" y="25" text-anchor="middle" fill="#fff" font-family="Arial, sans-serif" font-size="11" font-weight="bold">GitLab CE</text>
      <text x="100" y="42" text-anchor="middle" fill="#ffe0cc" font-family="monospace" font-size="8">platform-gitlab</text>
      <rect x="10" y="52" width="180" height="78" rx="5" fill="rgba(0,0,0,0.3)"/>
      <text x="20" y="70" fill="#ffd93d" font-family="monospace" font-size="8">IP: 172.20.0.10</text>
      <text x="20" y="85" fill="#e0e0e0" font-family="monospace" font-size="8">Internal: 80, 22</text>
      <text x="20" y="100" fill="#81ecec" font-family="monospace" font-size="8">Host: 8929, 2224</text>
      <text x="20" y="118" fill="#00b894" font-family="monospace" font-size="7">hostname: gitlab-server</text>
    </g>

    <!-- GitLab Runner -->
    <g filter="url(#shadow)" transform="translate(215, 20)">
      <rect x="0" y="0" width="200" height="140" rx="10" fill="rgba(252,109,38,0.3)" stroke="#fc6d26" stroke-width="2"/>
      <text x="100" y="25" text-anchor="middle" fill="#fc6d26" font-family="Arial, sans-serif" font-size="11" font-weight="bold">GitLab Runner</text>
      <text x="100" y="42" text-anchor="middle" fill="#888" font-family="monospace" font-size="8">platform-gitlab-runner</text>
      <rect x="10" y="52" width="180" height="78" rx="5" fill="rgba(0,0,0,0.3)"/>
      <text x="20" y="70" fill="#ffd93d" font-family="monospace" font-size="8">IP: 172.20.0.11</text>
      <text x="20" y="85" fill="#888" font-family="monospace" font-size="8">No exposed ports</text>
      <text x="20" y="103" fill="#d63031" font-family="monospace" font-size="7">Docker socket mounted</text>
      <text x="20" y="118" fill="#81ecec" font-family="monospace" font-size="7">→ gitlab-server:80</text>
    </g>

    <!-- Nexus -->
    <g filter="url(#shadow)" transform="translate(430, 20)">
      <rect x="0" y="0" width="200" height="140" rx="10" fill="#1ba5ad"/>
      <text x="100" y="25" text-anchor="middle" fill="#fff" font-family="Arial, sans-serif" font-size="11" font-weight="bold">Nexus Repository</text>
      <text x="100" y="42" text-anchor="middle" fill="#e0f7fa" font-family="monospace" font-size="8">platform-nexus</text>
      <rect x="10" y="52" width="180" height="78" rx="5" fill="rgba(0,0,0,0.3)"/>
      <text x="20" y="70" fill="#ffd93d" font-family="monospace" font-size="8">IP: 172.20.0.12</text>
      <text x="20" y="85" fill="#e0e0e0" font-family="monospace" font-size="8">Internal: 8081, 5001</text>
      <text x="20" y="100" fill="#81ecec" font-family="monospace" font-size="8">Host: 8081, 5001</text>
      <text x="20" y="118" fill="#00b894" font-family="monospace" font-size="7">Docker Registry :5001</text>
    </g>

    <!-- SonarQube -->
    <g filter="url(#shadow)" transform="translate(645, 20)">
      <rect x="0" y="0" width="200" height="140" rx="10" fill="#4c6ef5"/>
      <text x="100" y="25" text-anchor="middle" fill="#fff" font-family="Arial, sans-serif" font-size="11" font-weight="bold">SonarQube</text>
      <text x="100" y="42" text-anchor="middle" fill="#dbe4ff" font-family="monospace" font-size="8">platform-sonarqube</text>
      <rect x="10" y="52" width="180" height="78" rx="5" fill="rgba(0,0,0,0.3)"/>
      <text x="20" y="70" fill="#ffd93d" font-family="monospace" font-size="8">IP: 172.20.0.13</text>
      <text x="20" y="85" fill="#e0e0e0" font-family="monospace" font-size="8">Internal: 9000</text>
      <text x="20" y="100" fill="#81ecec" font-family="monospace" font-size="8">Host: 9002</text>
      <text x="20" y="118" fill="#81ecec" font-family="monospace" font-size="7">→ sonarqube-db:5432</text>
    </g>

    <!-- Trivy -->
    <g filter="url(#shadow)" transform="translate(860, 20)">
      <rect x="0" y="0" width="200" height="140" rx="10" fill="#00b894"/>
      <text x="100" y="25" text-anchor="middle" fill="#fff" font-family="Arial, sans-serif" font-size="11" font-weight="bold">Trivy Scanner</text>
      <text x="100" y="42" text-anchor="middle" fill="#e0fff0" font-family="monospace" font-size="8">platform-trivy</text>
      <rect x="10" y="52" width="180" height="78" rx="5" fill="rgba(0,0,0,0.3)"/>
      <text x="20" y="70" fill="#ffd93d" font-family="monospace" font-size="8">IP: 172.20.0.14</text>
      <text x="20" y="85" fill="#e0e0e0" font-family="monospace" font-size="8">Internal: 8080</text>
      <text x="20" y="100" fill="#81ecec" font-family="monospace" font-size="8">Host: 8083</text>
      <text x="20" y="118" fill="#00b894" font-family="monospace" font-size="7">Server mode</text>
    </g>

    <!-- Redmine -->
    <g filter="url(#shadow)" transform="translate(1075, 20)">
      <rect x="0" y="0" width="200" height="140" rx="10" fill="#c0392b"/>
      <text x="100" y="25" text-anchor="middle" fill="#fff" font-family="Arial, sans-serif" font-size="11" font-weight="bold">Redmine</text>
      <text x="100" y="42" text-anchor="middle" fill="#ffcccc" font-family="monospace" font-size="8">platform-redmine</text>
      <rect x="10" y="52" width="180" height="78" rx="5" fill="rgba(0,0,0,0.3)"/>
      <text x="20" y="70" fill="#ffd93d" font-family="monospace" font-size="8">IP: 172.20.0.15</text>
      <text x="20" y="85" fill="#e0e0e0" font-family="monospace" font-size="8">Internal: 3000</text>
      <text x="20" y="100" fill="#81ecec" font-family="monospace" font-size="8">Host: 3001</text>
      <text x="20" y="118" fill="#81ecec" font-family="monospace" font-size="7">→ redmine-db:5432</text>
    </g>
  </g>

  <!-- Row 4: API Services Layer -->
  <g transform="translate(70, 730)">
    <text x="0" y="0" fill="#00cec9" font-family="Arial, sans-serif" font-size="14" font-weight="bold">API Services Layer</text>

    <!-- Modernization API -->
    <g filter="url(#shadow)" transform="translate(0, 20)">
      <rect x="0" y="0" width="280" height="140" rx="10" fill="#00cec9"/>
      <text x="140" y="25" text-anchor="middle" fill="#1a1a2e" font-family="Arial, sans-serif" font-size="11" font-weight="bold">Modernization API</text>
      <text x="140" y="42" text-anchor="middle" fill="#333" font-family="monospace" font-size="8">platform-modernization-api</text>
      <rect x="10" y="52" width="260" height="78" rx="5" fill="rgba(0,0,0,0.2)"/>
      <text x="20" y="70" fill="#1a1a2e" font-family="monospace" font-size="8">IP: 172.20.0.16</text>
      <text x="20" y="85" fill="#333" font-family="monospace" font-size="8">Internal: 8000 | Host: 8002</text>
      <text x="20" y="103" fill="#1a1a2e" font-family="monospace" font-size="7" font-weight="bold">Connects to:</text>
      <text x="20" y="118" fill="#333" font-family="monospace" font-size="6">postgres, redis, minio, chromadb, ollama</text>
    </g>

    <!-- DevOps Tools Backend -->
    <g filter="url(#shadow)" transform="translate(295, 20)">
      <rect x="0" y="0" width="280" height="140" rx="10" fill="rgba(0,206,201,0.3)" stroke="#00cec9" stroke-width="2"/>
      <text x="140" y="25" text-anchor="middle" fill="#00cec9" font-family="Arial, sans-serif" font-size="11" font-weight="bold">DevOps Tools Backend</text>
      <text x="140" y="42" text-anchor="middle" fill="#888" font-family="monospace" font-size="8">devops-tools-backend</text>
      <rect x="10" y="52" width="260" height="78" rx="5" fill="rgba(0,0,0,0.3)"/>
      <text x="20" y="70" fill="#ffd93d" font-family="monospace" font-size="8">IP: 172.20.0.17</text>
      <text x="20" y="85" fill="#e0e0e0" font-family="monospace" font-size="8">Internal: 8003 | Host: 8003</text>
      <text x="20" y="103" fill="#00cec9" font-family="monospace" font-size="7" font-weight="bold">Connects to:</text>
      <text x="20" y="118" fill="#888" font-family="monospace" font-size="6">gitlab, sonarqube, trivy, nexus, chromadb, ollama</text>
    </g>
  </g>

  <!-- Row 5: Monitoring Layer -->
  <g transform="translate(70, 910)">
    <text x="0" y="0" fill="#e74c3c" font-family="Arial, sans-serif" font-size="14" font-weight="bold">Monitoring &amp; Observability Layer</text>

    <!-- Prometheus -->
    <g filter="url(#shadow)" transform="translate(0, 20)">
      <rect x="0" y="0" width="170" height="120" rx="10" fill="#e74c3c"/>
      <text x="85" y="25" text-anchor="middle" fill="#fff" font-family="Arial, sans-serif" font-size="11" font-weight="bold">Prometheus</text>
      <text x="85" y="42" text-anchor="middle" fill="#ffe0e0" font-family="monospace" font-size="8">platform-prometheus</text>
      <rect x="10" y="52" width="150" height="58" rx="5" fill="rgba(0,0,0,0.3)"/>
      <text x="20" y="70" fill="#ffd93d" font-family="monospace" font-size="8">IP: 172.20.0.18</text>
      <text x="20" y="85" fill="#e0e0e0" font-family="monospace" font-size="8">Internal: 9090</text>
      <text x="20" y="100" fill="#81ecec" font-family="monospace" font-size="8">Host: 9090</text>
    </g>

    <!-- Grafana -->
    <g filter="url(#shadow)" transform="translate(185, 20)">
      <rect x="0" y="0" width="170" height="120" rx="10" fill="#f39c12"/>
      <text x="85" y="25" text-anchor="middle" fill="#1a1a2e" font-family="Arial, sans-serif" font-size="11" font-weight="bold">Grafana</text>
      <text x="85" y="42" text-anchor="middle" fill="#333" font-family="monospace" font-size="8">platform-grafana</text>
      <rect x="10" y="52" width="150" height="58" rx="5" fill="rgba(0,0,0,0.2)"/>
      <text x="20" y="70" fill="#1a1a2e" font-family="monospace" font-size="8">IP: 172.20.0.19</text>
      <text x="20" y="85" fill="#333" font-family="monospace" font-size="8">Internal: 3000</text>
      <text x="20" y="100" fill="#1a1a2e" font-family="monospace" font-size="8">Host: 3002</text>
    </g>

    <!-- Loki -->
    <g filter="url(#shadow)" transform="translate(370, 20)">
      <rect x="0" y="0" width="170" height="120" rx="10" fill="#2ecc71"/>
      <text x="85" y="25" text-anchor="middle" fill="#fff" font-family="Arial, sans-serif" font-size="11" font-weight="bold">Loki</text>
      <text x="85" y="42" text-anchor="middle" fill="#e0ffe0" font-family="monospace" font-size="8">platform-loki</text>
      <rect x="10" y="52" width="150" height="58" rx="5" fill="rgba(0,0,0,0.3)"/>
      <text x="20" y="70" fill="#ffd93d" font-family="monospace" font-size="8">IP: 172.20.0.20</text>
      <text x="20" y="85" fill="#e0e0e0" font-family="monospace" font-size="8">Internal: 3100</text>
      <text x="20" y="100" fill="#81ecec" font-family="monospace" font-size="8">Host: 3100</text>
    </g>

    <!-- Promtail -->
    <g filter="url(#shadow)" transform="translate(555, 20)">
      <rect x="0" y="0" width="170" height="120" rx="10" fill="rgba(46,204,113,0.3)" stroke="#2ecc71" stroke-width="2"/>
      <text x="85" y="25" text-anchor="middle" fill="#2ecc71" font-family="Arial, sans-serif" font-size="11" font-weight="bold">Promtail</text>
      <text x="85" y="42" text-anchor="middle" fill="#888" font-family="monospace" font-size="8">platform-promtail</text>
      <rect x="10" y="52" width="150" height="58" rx="5" fill="rgba(0,0,0,0.3)"/>
      <text x="20" y="70" fill="#ffd93d" font-family="monospace" font-size="8">IP: 172.20.0.21</text>
      <text x="20" y="85" fill="#888" font-family="monospace" font-size="8">No exposed ports</text>
      <text x="20" y="100" fill="#81ecec" font-family="monospace" font-size="7">→ loki:3100</text>
    </g>

    <!-- Jaeger -->
    <g filter="url(#shadow)" transform="translate(740, 20)">
      <rect x="0" y="0" width="200" height="120" rx="10" fill="#3498db"/>
      <text x="100" y="25" text-anchor="middle" fill="#fff" font-family="Arial, sans-serif" font-size="11" font-weight="bold">Jaeger</text>
      <text x="100" y="42" text-anchor="middle" fill="#dfe6e9" font-family="monospace" font-size="8">platform-jaeger</text>
      <rect x="10" y="52" width="180" height="58" rx="5" fill="rgba(0,0,0,0.3)"/>
      <text x="20" y="70" fill="#ffd93d" font-family="monospace" font-size="8">IP: 172.20.0.22</text>
      <text x="20" y="85" fill="#e0e0e0" font-family="monospace" font-size="8">Internal: 16686, 4317, 4318</text>
      <text x="20" y="100" fill="#81ecec" font-family="monospace" font-size="8">Host: 16686, 4317, 4318</text>
    </g>
  </g>

  <!-- Network Configuration Summary -->
  <g transform="translate(600, 730)">
    <g filter="url(#shadow)">
      <rect x="0" y="0" width="680" height="160" rx="15" fill="#1a1a2e"/>
      <text x="340" y="25" text-anchor="middle" fill="#6c5ce7" font-family="Arial, sans-serif" font-size="14" font-weight="bold">Network Configuration Summary</text>

      <rect x="15" y="40" width="320" height="105" rx="8" fill="rgba(0,0,0,0.3)"/>
      <text x="30" y="60" fill="#ffd93d" font-family="Arial, sans-serif" font-size="10" font-weight="bold">platform-net Properties:</text>
      <text x="40" y="78" fill="#e0e0e0" font-family="monospace" font-size="9">Driver: bridge</text>
      <text x="40" y="93" fill="#e0e0e0" font-family="monospace" font-size="9">Subnet: 172.20.0.0/16</text>
      <text x="40" y="108" fill="#e0e0e0" font-family="monospace" font-size="9">Gateway: 172.20.0.1</text>
      <text x="40" y="123" fill="#e0e0e0" font-family="monospace" font-size="9">IPAM: default</text>
      <text x="40" y="138" fill="#81ecec" font-family="monospace" font-size="9">Containers: 22</text>

      <rect x="345" y="40" width="320" height="105" rx="8" fill="rgba(0,0,0,0.3)"/>
      <text x="360" y="60" fill="#ffd93d" font-family="Arial, sans-serif" font-size="10" font-weight="bold">Container DNS Resolution:</text>
      <text x="370" y="78" fill="#e0e0e0" font-family="monospace" font-size="9">postgres → 172.20.0.2</text>
      <text x="370" y="93" fill="#e0e0e0" font-family="monospace" font-size="9">redis → 172.20.0.3</text>
      <text x="370" y="108" fill="#e0e0e0" font-family="monospace" font-size="9">gitlab-server → 172.20.0.10</text>
      <text x="370" y="123" fill="#e0e0e0" font-family="monospace" font-size="9">ollama → 172.20.0.8</text>
      <text x="370" y="138" fill="#888" font-family="monospace" font-size="8">... (auto-resolved by Docker)</text>
    </g>
  </g>

  <!-- Legend -->
  <g transform="translate(1300, 730)">
    <g filter="url(#shadow)">
      <rect x="0" y="0" width="180" height="160" rx="10" fill="#1a1a2e"/>
      <text x="90" y="25" text-anchor="middle" fill="#fff" font-family="Arial, sans-serif" font-size="12" font-weight="bold">Legend</text>

      <rect x="15" y="40" width="20" height="15" rx="3" fill="#336791"/>
      <text x="45" y="52" fill="#888" font-family="Arial, sans-serif" font-size="9">Database</text>

      <rect x="15" y="62" width="20" height="15" rx="3" fill="#6c5ce7"/>
      <text x="45" y="74" fill="#888" font-family="Arial, sans-serif" font-size="9">AI/LLM</text>

      <rect x="15" y="84" width="20" height="15" rx="3" fill="#fc6d26"/>
      <text x="45" y="96" fill="#888" font-family="Arial, sans-serif" font-size="9">DevOps</text>

      <rect x="15" y="106" width="20" height="15" rx="3" fill="#00cec9"/>
      <text x="45" y="118" fill="#888" font-family="Arial, sans-serif" font-size="9">API Services</text>

      <rect x="15" y="128" width="20" height="15" rx="3" fill="#e74c3c"/>
      <text x="45" y="140" fill="#888" font-family="Arial, sans-serif" font-size="9">Monitoring</text>
    </g>
  </g>

  <!-- Footer -->
  <text x="800" y="1180" text-anchor="middle" fill="#555" font-family="Arial, sans-serif" font-size="11">AI-Powered DevOps Platform | Docker Network Topology | 22 Services on platform-net Bridge</text>
</svg>